<svg xmlns="http://www.w3.org/2000/svg" xmlns:xlink="http://www.w3.org/1999/xlink" width="500" zoomAndPan="magnify" viewBox="0 0 375 374.999991" height="500" preserveAspectRatio="xMidYMid meet" version="1.0"><defs><g/><clipPath id="dc32d8a523"><path d="M 56.707031 56.707031 L 318.292969 56.707031 L 318.292969 318.292969 L 56.707031 318.292969 Z M 56.707031 56.707031 " clip-rule="nonzero"/></clipPath><clipPath id="7462cc3633"><path d="M 187.5 56.707031 C 115.265625 56.707031 56.707031 115.265625 56.707031 187.5 C 56.707031 259.734375 115.265625 318.292969 187.5 318.292969 C 259.734375 318.292969 318.292969 259.734375 318.292969 187.5 C 318.292969 115.265625 259.734375 56.707031 187.5 56.707031 " clip-rule="nonzero"/></clipPath><clipPath id="de3a761b56"><path d="M 96.550781 84.628906 L 278.800781 84.628906 L 278.800781 209 L 96.550781 209 Z M 96.550781 84.628906 " clip-rule="nonzero"/></clipPath><clipPath id="16324763fe"><path d="M 155.699219 146.941406 L 219.296875 146.941406 L 219.296875 209.191406 L 155.699219 209.191406 Z M 155.699219 146.941406 " clip-rule="nonzero"/></clipPath></defs><g clip-path="url(#dc32d8a523)"><g clip-path="url(#7462cc3633)"><path fill="#000000" d="M 56.707031 56.707031 L 318.292969 56.707031 L 318.292969 318.292969 L 56.707031 318.292969 Z M 56.707031 56.707031 " fill-opacity="1" fill-rule="nonzero"/></g></g><g clip-path="url(#de3a761b56)"><path fill="#ffffff" d="M 278.777344 164.109375 L 278.777344 187.546875 C 278.777344 190.222656 276.617188 192.394531 273.945312 192.40625 C 273.929688 192.40625 273.914062 192.40625 273.902344 192.40625 L 258.058594 193.515625 C 257.714844 193.539062 257.429688 193.78125 257.339844 194.109375 C 256.023438 199.164062 254.171875 203.996094 251.84375 208.554688 C 251.84375 208.558594 251.84375 208.558594 251.839844 208.5625 C 251.617188 208.996094 251.054688 209.121094 250.664062 208.828125 L 236.101562 197.726562 C 235.808594 197.503906 235.707031 197.113281 235.851562 196.777344 C 236.675781 194.882812 237.390625 192.929688 237.992188 190.929688 C 238.757812 188.363281 239.332031 185.71875 239.703125 183.007812 C 239.925781 181.382812 240.070312 179.734375 240.144531 178.066406 C 240.175781 177.324219 240.191406 176.578125 240.191406 175.824219 C 240.191406 174.386719 240.132812 172.957031 240.019531 171.542969 C 238.777344 156.152344 230.914062 142.632812 219.28125 133.84375 C 210.488281 127.199219 199.542969 123.257812 187.675781 123.257812 C 158.667969 123.257812 135.160156 146.792969 135.160156 175.824219 C 135.160156 183.273438 136.707031 190.359375 139.496094 196.777344 C 139.640625 197.113281 139.539062 197.503906 139.246094 197.726562 L 137.878906 198.769531 L 124.691406 208.820312 C 124.300781 209.117188 123.730469 208.992188 123.503906 208.554688 C 123.476562 208.5 123.449219 208.449219 123.421875 208.394531 C 123.382812 208.324219 123.347656 208.253906 123.3125 208.179688 C 122.164062 205.894531 121.132812 203.542969 120.226562 201.125 C 119.375 198.839844 118.628906 196.5 118.007812 194.109375 C 117.921875 193.78125 117.632812 193.539062 117.289062 193.515625 L 101.449219 192.40625 C 101.433594 192.40625 101.421875 192.40625 101.402344 192.40625 C 98.734375 192.394531 96.570312 190.222656 96.570312 187.546875 L 96.570312 164.109375 C 96.570312 161.429688 98.734375 159.257812 101.402344 159.25 C 101.421875 159.25 101.433594 159.246094 101.449219 159.246094 L 117.289062 158.136719 C 117.632812 158.113281 117.921875 157.875 118.007812 157.542969 C 119.683594 151.117188 122.222656 145.042969 125.5 139.449219 C 125.671875 139.152344 125.636719 138.78125 125.414062 138.519531 L 114.988281 126.519531 C 114.980469 126.507812 114.972656 126.5 114.960938 126.488281 C 113.078125 124.589844 113.085938 121.523438 114.976562 119.628906 L 125.066406 109.53125 L 131.535156 103.058594 C 133.421875 101.164062 136.488281 101.160156 138.382812 103.042969 C 138.394531 103.050781 138.402344 103.0625 138.414062 103.070312 L 150.40625 113.503906 C 150.664062 113.730469 151.039062 113.761719 151.335938 113.589844 C 156.921875 110.3125 162.988281 107.769531 169.40625 106.089844 C 169.738281 106.003906 169.980469 105.714844 170.003906 105.375 L 171.109375 89.515625 C 171.109375 89.5 171.109375 89.484375 171.109375 89.472656 C 171.121094 86.796875 173.292969 84.632812 175.964844 84.632812 L 199.382812 84.632812 C 202.058594 84.632812 204.226562 86.796875 204.238281 89.472656 C 204.238281 89.484375 204.238281 89.5 204.238281 89.515625 L 205.347656 105.375 C 205.367188 105.714844 205.609375 106.003906 205.941406 106.089844 C 212.359375 107.769531 218.425781 110.3125 224.015625 113.589844 C 224.3125 113.761719 224.683594 113.730469 224.941406 113.503906 L 226.964844 111.746094 L 236.933594 103.070312 C 236.945312 103.0625 236.953125 103.050781 236.964844 103.042969 C 238.859375 101.160156 241.925781 101.164062 243.816406 103.058594 L 250.28125 109.53125 L 260.375 119.628906 C 262.261719 121.523438 262.269531 124.589844 260.386719 126.488281 C 260.378906 126.5 260.371094 126.507812 260.359375 126.519531 L 249.933594 138.519531 C 249.710938 138.78125 249.675781 139.152344 249.847656 139.449219 C 252.675781 144.28125 254.960938 149.472656 256.609375 154.9375 C 256.867188 155.800781 257.113281 156.667969 257.339844 157.542969 C 257.429688 157.875 257.714844 158.113281 258.058594 158.136719 L 260.40625 158.300781 L 262.367188 158.441406 L 268.238281 158.851562 L 273.902344 159.246094 C 273.914062 159.246094 273.929688 159.25 273.945312 159.25 C 276.617188 159.257812 278.777344 161.429688 278.777344 164.109375 " fill-opacity="1" fill-rule="nonzero"/></g><g clip-path="url(#16324763fe)"><path fill="#ffffff" d="M 211.480469 146.941406 L 212.277344 148.539062 L 203.910156 153.324219 C 203.910156 157.316406 205.503906 160.507812 209.089844 162.503906 L 217.457031 157.714844 L 217.855469 158.511719 C 215.863281 164.5 211.878906 168.488281 203.910156 168.488281 C 201.917969 168.488281 195.941406 174.472656 192.753906 177.664062 L 186.378906 171.28125 C 189.566406 168.089844 196.738281 160.90625 196.738281 158.910156 C 196.738281 151.730469 198.730469 146.941406 211.480469 146.941406 Z M 161.675781 148.9375 L 169.644531 154.523438 L 170.441406 157.714844 L 193.550781 180.859375 L 196.738281 178.863281 L 198.332031 180.457031 C 198.332031 185.246094 203.910156 187.640625 206.300781 187.640625 L 219.449219 200.808594 C 219.449219 204.796875 215.066406 209.1875 211.082031 209.1875 L 197.933594 196.019531 C 197.933594 193.625 195.542969 188.039062 190.761719 188.039062 L 189.167969 186.445312 L 191.160156 183.25 L 168.050781 160.109375 L 164.863281 159.3125 L 159.285156 151.332031 Z M 181.597656 176.070312 L 187.972656 182.453125 C 183.191406 187.242188 176.816406 193.625 176.816406 195.621094 C 176.816406 202.804688 174.824219 207.589844 162.074219 207.589844 L 161.277344 205.996094 L 169.644531 201.207031 C 169.644531 197.21875 168.050781 194.023438 164.464844 192.03125 L 156.097656 196.816406 L 155.699219 196.019531 C 157.691406 190.035156 161.675781 186.042969 169.644531 186.042969 C 171.636719 186.042969 176.816406 180.859375 181.597656 176.070312 Z M 181.597656 176.070312 " fill-opacity="1" fill-rule="nonzero"/></g><g fill="#ffffff" fill-opacity="1"><g transform="translate(99.802786, 251.797953)"><g><path d="M 25.25 -15.484375 L 25.25 -1.5625 C 24.894531 -1.550781 24.539062 -1.492188 24.1875 -1.390625 C 23.84375 -1.296875 23.40625 -1.160156 22.875 -0.984375 C 21.707031 -0.597656 20.554688 -0.285156 19.421875 -0.046875 C 18.285156 0.179688 16.828125 0.296875 15.046875 0.296875 C 12.304688 0.296875 9.921875 -0.253906 7.890625 -1.359375 C 5.859375 -2.472656 4.289062 -4.070312 3.1875 -6.15625 C 2.09375 -8.25 1.546875 -10.75 1.546875 -13.65625 C 1.546875 -16.9375 2.164062 -19.632812 3.40625 -21.75 C 4.644531 -23.875 6.328125 -25.425781 8.453125 -26.40625 C 10.585938 -27.394531 13.046875 -27.890625 15.828125 -27.890625 C 17.210938 -27.890625 18.359375 -27.820312 19.265625 -27.6875 C 20.179688 -27.5625 21.207031 -27.367188 22.34375 -27.109375 C 22.96875 -26.960938 23.4375 -26.859375 23.75 -26.796875 L 23.578125 -21.03125 C 21.691406 -22 19.203125 -22.484375 16.109375 -22.484375 C 14.523438 -22.484375 13.171875 -22.148438 12.046875 -21.484375 C 10.921875 -20.828125 10.0625 -19.867188 9.46875 -18.609375 C 8.882812 -17.359375 8.59375 -15.867188 8.59375 -14.140625 C 8.59375 -12.335938 8.835938 -10.734375 9.328125 -9.328125 C 9.816406 -7.929688 10.539062 -6.835938 11.5 -6.046875 C 12.457031 -5.253906 13.601562 -4.859375 14.9375 -4.859375 C 16.65625 -4.859375 17.988281 -5.050781 18.9375 -5.4375 L 18.9375 -10.265625 L 15 -10.546875 L 15 -15.484375 Z M 25.25 -15.484375 "/></g></g></g><g fill="#ffffff" fill-opacity="1"><g transform="translate(127.146446, 251.797953)"><g><path d="M 10.3125 -27.609375 L 10.3125 0 L 3.359375 0 L 3.359375 -27.609375 Z M 10.3125 -27.609375 "/></g></g></g><g fill="#ffffff" fill-opacity="1"><g transform="translate(140.818276, 251.797953)"><g><path d="M 26.4375 -27.609375 L 26.4375 0 L 19.5 0 L 10.546875 -14.78125 L 8.546875 -18.96875 L 9.390625 -11.9375 L 9.390625 0 L 3.140625 0 L 3.140625 -27.609375 L 9.59375 -27.609375 L 19 -12.453125 L 20.921875 -8.4375 L 20.1875 -15.453125 L 20.1875 -27.609375 Z M 26.4375 -27.609375 "/></g></g></g><g fill="#ffffff" fill-opacity="1"><g transform="translate(170.392222, 251.797953)"><g><path d="M 15.171875 -9.6875 L 15.171875 0 L 8.125 0 L 8.125 -9.71875 L -0.96875 -27.609375 L 6.59375 -27.609375 L 10.703125 -18.671875 L 11.859375 -15.609375 L 12.84375 -18.671875 L 17 -27.609375 L 24.34375 -27.609375 Z M 15.171875 -9.6875 "/></g></g></g><g fill="#ffffff" fill-opacity="1"><g transform="translate(193.764886, 251.797953)"><g><path d="M 17.96875 -5.15625 L 8.34375 -5.15625 L 6.890625 0 L -0.34375 0 L 9.265625 -27.78125 L 17.140625 -27.78125 L 26.828125 0 L 19.5 0 Z M 16.546875 -9.96875 L 13.984375 -18.625 L 13.078125 -22.203125 L 12.15625 -18.625 L 9.703125 -9.96875 Z M 16.546875 -9.96875 "/></g></g></g><g fill="#ffffff" fill-opacity="1"><g transform="translate(220.238192, 251.797953)"><g><path d="M 25.96875 0 L 18.359375 0 C 18.210938 -0.175781 18.082031 -0.375 17.96875 -0.59375 C 17.851562 -0.820312 17.648438 -1.273438 17.359375 -1.953125 C 17.015625 -2.734375 16.644531 -3.726562 16.25 -4.9375 C 15.875 -6.03125 15.550781 -6.890625 15.28125 -7.515625 C 15.019531 -8.148438 14.703125 -8.6875 14.328125 -9.125 C 13.953125 -9.5625 13.515625 -9.796875 13.015625 -9.828125 C 12.328125 -9.773438 11.332031 -9.75 10.03125 -9.75 L 10.03125 0 L 3.140625 0 L 3.140625 -27.609375 L 5.515625 -27.609375 C 5.953125 -27.609375 6.859375 -27.640625 8.234375 -27.703125 C 8.429688 -27.722656 9.070312 -27.757812 10.15625 -27.8125 C 11.238281 -27.863281 12.457031 -27.890625 13.8125 -27.890625 C 15.632812 -27.890625 17.3125 -27.625 18.84375 -27.09375 C 20.375 -26.5625 21.628906 -25.644531 22.609375 -24.34375 C 23.597656 -23.039062 24.09375 -21.300781 24.09375 -19.125 C 24.09375 -15.195312 22.640625 -12.550781 19.734375 -11.1875 C 20.359375 -10.695312 20.90625 -10.03125 21.375 -9.1875 C 21.84375 -8.351562 22.398438 -7.195312 23.046875 -5.71875 C 23.421875 -4.84375 23.738281 -4.128906 24 -3.578125 C 24.257812 -3.023438 24.535156 -2.5 24.828125 -2 Z M 10.03125 -14.546875 C 10.375 -14.492188 10.90625 -14.457031 11.625 -14.4375 C 12.351562 -14.414062 12.953125 -14.410156 13.421875 -14.421875 C 14.765625 -14.421875 15.773438 -14.84375 16.453125 -15.6875 C 17.128906 -16.539062 17.46875 -17.644531 17.46875 -19 C 17.46875 -21.675781 15.96875 -23.015625 12.96875 -23.015625 C 11.789062 -23.015625 10.8125 -22.90625 10.03125 -22.6875 Z M 10.03125 -14.546875 "/></g></g></g><g fill="#ffffff" fill-opacity="1"><g transform="translate(246.89282, 251.797953)"><g><path d="M 5.671875 -27.609375 C 5.960938 -27.609375 6.859375 -27.640625 8.359375 -27.703125 C 10.410156 -27.828125 12.035156 -27.890625 13.234375 -27.890625 C 17.816406 -27.890625 21.21875 -26.738281 23.4375 -24.4375 C 25.664062 -22.144531 26.78125 -18.828125 26.78125 -14.484375 C 26.78125 -11.378906 26.234375 -8.71875 25.140625 -6.5 C 24.046875 -4.289062 22.457031 -2.601562 20.375 -1.4375 C 18.300781 -0.28125 15.804688 0.296875 12.890625 0.296875 C 11.703125 0.296875 10.335938 0.238281 8.796875 0.125 C 8.523438 0.113281 8.046875 0.0859375 7.359375 0.046875 C 6.671875 0.015625 6.070312 0 5.5625 0 L 3.140625 0 L 3.140625 -27.609375 Z M 13.234375 -4.8125 C 15.234375 -4.820312 16.796875 -5.578125 17.921875 -7.078125 C 19.046875 -8.578125 19.609375 -10.84375 19.609375 -13.875 C 19.609375 -16.070312 19.367188 -17.832031 18.890625 -19.15625 C 18.410156 -20.476562 17.679688 -21.429688 16.703125 -22.015625 C 15.734375 -22.609375 14.484375 -22.90625 12.953125 -22.90625 C 12.515625 -22.90625 12.015625 -22.878906 11.453125 -22.828125 C 10.898438 -22.785156 10.441406 -22.734375 10.078125 -22.671875 L 10.078125 -5.078125 C 10.710938 -4.898438 11.765625 -4.8125 13.234375 -4.8125 Z M 13.234375 -4.8125 "/></g></g></g><g fill="#ffffff" fill-opacity="1"><g transform="translate(129.600236, 273.321917)"><g><path d="M 5.53125 -7.578125 L 5.53125 -6.359375 L 2.53125 -6.359375 L 2.53125 -4.375 L 4.734375 -4.375 L 4.734375 -3.15625 L 2.53125 -3.15625 L 2.53125 0 L 0.9375 0 L 0.9375 -7.578125 Z M 5.53125 -7.578125 "/></g></g></g><g fill="#ffffff" fill-opacity="1"><g transform="translate(135.292577, 273.321917)"><g><path d="M 0.484375 -2.890625 C 0.484375 -3.492188 0.597656 -4.007812 0.828125 -4.4375 C 1.066406 -4.875 1.398438 -5.203125 1.828125 -5.421875 C 2.253906 -5.640625 2.742188 -5.75 3.296875 -5.75 C 3.921875 -5.75 4.4375 -5.613281 4.84375 -5.34375 C 5.25 -5.082031 5.539062 -4.726562 5.71875 -4.28125 C 5.90625 -3.84375 6 -3.347656 6 -2.796875 C 6 -2.179688 5.878906 -1.660156 5.640625 -1.234375 C 5.398438 -0.804688 5.066406 -0.476562 4.640625 -0.25 C 4.222656 -0.03125 3.738281 0.078125 3.1875 0.078125 C 2.5625 0.078125 2.046875 -0.0507812 1.640625 -0.3125 C 1.234375 -0.582031 0.9375 -0.9375 0.75 -1.375 C 0.570312 -1.820312 0.484375 -2.328125 0.484375 -2.890625 Z M 4.390625 -2.796875 C 4.390625 -3.328125 4.296875 -3.765625 4.109375 -4.109375 C 3.921875 -4.460938 3.632812 -4.640625 3.25 -4.640625 C 2.46875 -4.640625 2.078125 -4.066406 2.078125 -2.921875 C 2.078125 -2.566406 2.117188 -2.242188 2.203125 -1.953125 C 2.285156 -1.671875 2.410156 -1.441406 2.578125 -1.265625 C 2.753906 -1.097656 2.976562 -1.015625 3.25 -1.015625 C 4.007812 -1.015625 4.390625 -1.609375 4.390625 -2.796875 Z M 4.390625 -2.796875 "/></g></g></g><g fill="#ffffff" fill-opacity="1"><g transform="translate(141.765439, 273.321917)"><g><path d="M 3.84375 -5.765625 C 4.050781 -5.765625 4.195312 -5.742188 4.28125 -5.703125 L 4.28125 -4.203125 C 4.207031 -4.242188 4.117188 -4.273438 4.015625 -4.296875 C 3.921875 -4.328125 3.78125 -4.34375 3.59375 -4.34375 C 3.125 -4.34375 2.707031 -4.171875 2.34375 -3.828125 L 2.34375 0 L 0.78125 0 L 0.78125 -5.671875 L 2.15625 -5.671875 L 2.234375 -4.890625 C 2.316406 -5.035156 2.4375 -5.175781 2.59375 -5.3125 C 2.757812 -5.445312 2.953125 -5.554688 3.171875 -5.640625 C 3.390625 -5.722656 3.613281 -5.765625 3.84375 -5.765625 Z M 3.84375 -5.765625 "/></g></g></g><g fill="#ffffff" fill-opacity="1"><g transform="translate(146.369027, 273.321917)"><g/></g></g><g fill="#ffffff" fill-opacity="1"><g transform="translate(149.694944, 273.321917)"><g><path d="M 4.90625 -1.609375 L 2.125 -1.609375 L 1.625 0 L -0.078125 0 L 2.71875 -7.65625 L 4.328125 -7.65625 L 7.140625 0 L 5.421875 0 Z M 4.546875 -2.734375 L 3.71875 -5.34375 L 3.515625 -6.125 L 3.296875 -5.34375 L 2.484375 -2.734375 Z M 4.546875 -2.734375 "/></g></g></g><g fill="#ffffff" fill-opacity="1"><g transform="translate(156.759413, 273.321917)"><g><path d="M 3.84375 -5.765625 C 4.050781 -5.765625 4.195312 -5.742188 4.28125 -5.703125 L 4.28125 -4.203125 C 4.207031 -4.242188 4.117188 -4.273438 4.015625 -4.296875 C 3.921875 -4.328125 3.78125 -4.34375 3.59375 -4.34375 C 3.125 -4.34375 2.707031 -4.171875 2.34375 -3.828125 L 2.34375 0 L 0.78125 0 L 0.78125 -5.671875 L 2.15625 -5.671875 L 2.234375 -4.890625 C 2.316406 -5.035156 2.4375 -5.175781 2.59375 -5.3125 C 2.757812 -5.445312 2.953125 -5.554688 3.171875 -5.640625 C 3.390625 -5.722656 3.613281 -5.765625 3.84375 -5.765625 Z M 3.84375 -5.765625 "/></g></g></g><g fill="#ffffff" fill-opacity="1"><g transform="translate(161.363, 273.321917)"><g><path d="M 1.046875 -4.59375 L 0.375 -4.59375 L 0.375 -5.4375 C 0.59375 -5.5 0.75 -5.546875 0.84375 -5.578125 C 0.9375 -5.617188 1.019531 -5.664062 1.09375 -5.71875 C 1.175781 -5.78125 1.238281 -5.863281 1.28125 -5.96875 C 1.351562 -6.132812 1.476562 -6.46875 1.65625 -6.96875 L 2.609375 -6.96875 L 2.609375 -5.671875 L 4.140625 -5.671875 L 4.140625 -4.59375 L 2.609375 -4.59375 L 2.609375 -2.3125 C 2.609375 -1.9375 2.625 -1.660156 2.65625 -1.484375 C 2.695312 -1.316406 2.757812 -1.207031 2.84375 -1.15625 C 2.9375 -1.113281 3.070312 -1.09375 3.25 -1.09375 C 3.382812 -1.09375 3.539062 -1.113281 3.71875 -1.15625 C 3.90625 -1.207031 4.039062 -1.265625 4.125 -1.328125 L 4.3125 -0.453125 C 4.15625 -0.316406 3.921875 -0.191406 3.609375 -0.078125 C 3.304688 0.0234375 2.972656 0.078125 2.609375 0.078125 C 2.234375 0.078125 1.929688 0.0195312 1.703125 -0.09375 C 1.472656 -0.21875 1.304688 -0.40625 1.203125 -0.65625 C 1.097656 -0.914062 1.046875 -1.257812 1.046875 -1.6875 Z M 1.046875 -4.59375 "/></g></g></g><g fill="#ffffff" fill-opacity="1"><g transform="translate(165.901958, 273.321917)"><g><path d="M 2.421875 -5.671875 L 2.421875 0 L 0.859375 0 L 0.859375 -5.671875 Z M 0.6875 -7.359375 C 0.6875 -7.515625 0.726562 -7.664062 0.8125 -7.8125 C 0.90625 -7.957031 1.03125 -8.070312 1.1875 -8.15625 C 1.34375 -8.238281 1.503906 -8.28125 1.671875 -8.28125 C 1.941406 -8.28125 2.15625 -8.203125 2.3125 -8.046875 C 2.476562 -7.890625 2.5625 -7.6875 2.5625 -7.4375 C 2.5625 -7.269531 2.515625 -7.113281 2.421875 -6.96875 C 2.335938 -6.820312 2.21875 -6.707031 2.0625 -6.625 C 1.914062 -6.539062 1.753906 -6.5 1.578125 -6.5 C 1.410156 -6.5 1.257812 -6.535156 1.125 -6.609375 C 0.988281 -6.679688 0.878906 -6.78125 0.796875 -6.90625 C 0.722656 -7.039062 0.6875 -7.191406 0.6875 -7.359375 Z M 0.6875 -7.359375 "/></g></g></g><g fill="#ffffff" fill-opacity="1"><g transform="translate(169.183132, 273.321917)"><g><path d="M 0.734375 -1.515625 C 0.796875 -1.460938 0.910156 -1.398438 1.078125 -1.328125 C 1.253906 -1.253906 1.457031 -1.191406 1.6875 -1.140625 C 1.914062 -1.085938 2.140625 -1.0625 2.359375 -1.0625 C 2.671875 -1.0625 2.894531 -1.097656 3.03125 -1.171875 C 3.175781 -1.242188 3.25 -1.363281 3.25 -1.53125 C 3.25 -1.695312 3.148438 -1.84375 2.953125 -1.96875 C 2.753906 -2.09375 2.441406 -2.226562 2.015625 -2.375 C 1.515625 -2.539062 1.148438 -2.765625 0.921875 -3.046875 C 0.703125 -3.335938 0.59375 -3.691406 0.59375 -4.109375 C 0.59375 -4.453125 0.6875 -4.75 0.875 -5 C 1.070312 -5.25 1.34375 -5.4375 1.6875 -5.5625 C 2.03125 -5.6875 2.425781 -5.75 2.875 -5.75 C 3.238281 -5.75 3.5625 -5.710938 3.84375 -5.640625 C 4.132812 -5.578125 4.347656 -5.503906 4.484375 -5.421875 L 4.3125 -4.234375 C 4.195312 -4.335938 4.015625 -4.425781 3.765625 -4.5 C 3.515625 -4.570312 3.269531 -4.609375 3.03125 -4.609375 C 2.695312 -4.609375 2.453125 -4.570312 2.296875 -4.5 C 2.148438 -4.4375 2.078125 -4.320312 2.078125 -4.15625 C 2.078125 -4.039062 2.109375 -3.941406 2.171875 -3.859375 C 2.242188 -3.773438 2.359375 -3.695312 2.515625 -3.625 C 2.671875 -3.550781 2.894531 -3.46875 3.1875 -3.375 C 3.570312 -3.238281 3.878906 -3.09375 4.109375 -2.9375 C 4.335938 -2.78125 4.503906 -2.597656 4.609375 -2.390625 C 4.722656 -2.179688 4.78125 -1.9375 4.78125 -1.65625 C 4.78125 -1.082031 4.582031 -0.648438 4.1875 -0.359375 C 3.789062 -0.0664062 3.242188 0.078125 2.546875 0.078125 C 2.285156 0.078125 2.019531 0.0546875 1.75 0.015625 C 1.488281 -0.0234375 1.253906 -0.078125 1.046875 -0.140625 C 0.835938 -0.210938 0.679688 -0.285156 0.578125 -0.359375 Z M 0.734375 -1.515625 "/></g></g></g><g fill="#ffffff" fill-opacity="1"><g transform="translate(174.39324, 273.321917)"><g><path d="M 3.015625 -5.78125 C 3.566406 -5.78125 4.003906 -5.71875 4.328125 -5.59375 C 4.660156 -5.476562 4.910156 -5.269531 5.078125 -4.96875 C 5.242188 -4.664062 5.328125 -4.242188 5.328125 -3.703125 L 5.328125 0.078125 L 4.421875 0.078125 C 4.265625 0.078125 4.148438 0.0664062 4.078125 0.046875 C 4.003906 0.0234375 3.941406 -0.0195312 3.890625 -0.09375 C 3.847656 -0.164062 3.828125 -0.28125 3.828125 -0.4375 L 3.828125 -0.484375 C 3.660156 -0.316406 3.453125 -0.179688 3.203125 -0.078125 C 2.953125 0.0234375 2.671875 0.078125 2.359375 0.078125 C 1.992188 0.078125 1.671875 0 1.390625 -0.15625 C 1.109375 -0.3125 0.890625 -0.53125 0.734375 -0.8125 C 0.578125 -1.09375 0.5 -1.410156 0.5 -1.765625 C 0.5 -2.097656 0.582031 -2.378906 0.75 -2.609375 C 0.925781 -2.847656 1.175781 -3.039062 1.5 -3.1875 C 1.988281 -3.40625 2.742188 -3.515625 3.765625 -3.515625 L 3.765625 -3.875 C 3.765625 -4.082031 3.738281 -4.234375 3.6875 -4.328125 C 3.632812 -4.429688 3.53125 -4.5 3.375 -4.53125 C 3.21875 -4.570312 2.972656 -4.59375 2.640625 -4.59375 C 2.484375 -4.59375 2.242188 -4.550781 1.921875 -4.46875 C 1.597656 -4.394531 1.316406 -4.300781 1.078125 -4.1875 L 0.734375 -5.1875 C 0.867188 -5.269531 1.0625 -5.359375 1.3125 -5.453125 C 1.570312 -5.546875 1.851562 -5.625 2.15625 -5.6875 C 2.457031 -5.75 2.742188 -5.78125 3.015625 -5.78125 Z M 2.890625 -0.96875 C 3.054688 -0.96875 3.226562 -1 3.40625 -1.0625 C 3.59375 -1.132812 3.710938 -1.207031 3.765625 -1.28125 L 3.765625 -2.640625 C 3.578125 -2.640625 3.363281 -2.617188 3.125 -2.578125 C 2.894531 -2.535156 2.722656 -2.488281 2.609375 -2.4375 C 2.453125 -2.375 2.328125 -2.296875 2.234375 -2.203125 C 2.148438 -2.109375 2.109375 -1.96875 2.109375 -1.78125 C 2.109375 -1.507812 2.179688 -1.304688 2.328125 -1.171875 C 2.472656 -1.035156 2.660156 -0.96875 2.890625 -0.96875 Z M 2.890625 -0.96875 "/></g></g></g><g fill="#ffffff" fill-opacity="1"><g transform="translate(180.473355, 273.321917)"><g><path d="M 2.265625 -5.671875 L 2.296875 -5.0625 C 2.523438 -5.238281 2.8125 -5.394531 3.15625 -5.53125 C 3.5 -5.675781 3.832031 -5.753906 4.15625 -5.765625 C 4.5625 -5.773438 4.890625 -5.707031 5.140625 -5.5625 C 5.398438 -5.425781 5.59375 -5.191406 5.71875 -4.859375 C 5.851562 -4.535156 5.921875 -4.101562 5.921875 -3.5625 L 5.921875 0 L 4.375 0 L 4.375 -3.21875 C 4.375 -3.539062 4.347656 -3.789062 4.296875 -3.96875 C 4.242188 -4.144531 4.15625 -4.269531 4.03125 -4.34375 C 3.914062 -4.425781 3.75 -4.460938 3.53125 -4.453125 C 3.363281 -4.453125 3.175781 -4.414062 2.96875 -4.34375 C 2.757812 -4.269531 2.578125 -4.164062 2.421875 -4.03125 L 2.421875 0 L 0.859375 0 L 0.859375 -5.671875 Z M 2.265625 -5.671875 "/></g></g></g><g fill="#ffffff" fill-opacity="1"><g transform="translate(187.194792, 273.321917)"><g><path d="M 0.734375 -1.515625 C 0.796875 -1.460938 0.910156 -1.398438 1.078125 -1.328125 C 1.253906 -1.253906 1.457031 -1.191406 1.6875 -1.140625 C 1.914062 -1.085938 2.140625 -1.0625 2.359375 -1.0625 C 2.671875 -1.0625 2.894531 -1.097656 3.03125 -1.171875 C 3.175781 -1.242188 3.25 -1.363281 3.25 -1.53125 C 3.25 -1.695312 3.148438 -1.84375 2.953125 -1.96875 C 2.753906 -2.09375 2.441406 -2.226562 2.015625 -2.375 C 1.515625 -2.539062 1.148438 -2.765625 0.921875 -3.046875 C 0.703125 -3.335938 0.59375 -3.691406 0.59375 -4.109375 C 0.59375 -4.453125 0.6875 -4.75 0.875 -5 C 1.070312 -5.25 1.34375 -5.4375 1.6875 -5.5625 C 2.03125 -5.6875 2.425781 -5.75 2.875 -5.75 C 3.238281 -5.75 3.5625 -5.710938 3.84375 -5.640625 C 4.132812 -5.578125 4.347656 -5.503906 4.484375 -5.421875 L 4.3125 -4.234375 C 4.195312 -4.335938 4.015625 -4.425781 3.765625 -4.5 C 3.515625 -4.570312 3.269531 -4.609375 3.03125 -4.609375 C 2.695312 -4.609375 2.453125 -4.570312 2.296875 -4.5 C 2.148438 -4.4375 2.078125 -4.320312 2.078125 -4.15625 C 2.078125 -4.039062 2.109375 -3.941406 2.171875 -3.859375 C 2.242188 -3.773438 2.359375 -3.695312 2.515625 -3.625 C 2.671875 -3.550781 2.894531 -3.46875 3.1875 -3.375 C 3.570312 -3.238281 3.878906 -3.09375 4.109375 -2.9375 C 4.335938 -2.78125 4.503906 -2.597656 4.609375 -2.390625 C 4.722656 -2.179688 4.78125 -1.9375 4.78125 -1.65625 C 4.78125 -1.082031 4.582031 -0.648438 4.1875 -0.359375 C 3.789062 -0.0664062 3.242188 0.078125 2.546875 0.078125 C 2.285156 0.078125 2.019531 0.0546875 1.75 0.015625 C 1.488281 -0.0234375 1.253906 -0.078125 1.046875 -0.140625 C 0.835938 -0.210938 0.679688 -0.285156 0.578125 -0.359375 Z M 0.734375 -1.515625 "/></g></g></g><g fill="#ffffff" fill-opacity="1"><g transform="translate(192.404899, 273.321917)"><g><path d="M 0.875 1.90625 C 0.96875 1.851562 1.050781 1.757812 1.125 1.625 C 1.207031 1.5 1.269531 1.351562 1.3125 1.1875 C 1.363281 1.019531 1.390625 0.847656 1.390625 0.671875 C 1.390625 0.523438 1.359375 0.367188 1.296875 0.203125 C 1.234375 0.046875 1.15625 -0.0820312 1.0625 -0.1875 C 0.976562 -0.300781 0.894531 -0.359375 0.8125 -0.359375 L 0.8125 -0.796875 L 1.921875 -1.46875 C 2.109375 -1.394531 2.269531 -1.269531 2.40625 -1.09375 C 2.550781 -0.925781 2.65625 -0.734375 2.71875 -0.515625 C 2.789062 -0.296875 2.828125 -0.0859375 2.828125 0.109375 C 2.828125 0.472656 2.765625 0.820312 2.640625 1.15625 C 2.515625 1.5 2.34375 1.785156 2.125 2.015625 C 1.90625 2.253906 1.664062 2.421875 1.40625 2.515625 L 0.875 2.03125 Z M 0.875 1.90625 "/></g></g></g><g fill="#ffffff" fill-opacity="1"><g transform="translate(195.850132, 273.321917)"><g/></g></g><g fill="#ffffff" fill-opacity="1"><g transform="translate(199.17605, 273.321917)"><g><path d="M 1.046875 -4.59375 L 0.375 -4.59375 L 0.375 -5.4375 C 0.59375 -5.5 0.75 -5.546875 0.84375 -5.578125 C 0.9375 -5.617188 1.019531 -5.664062 1.09375 -5.71875 C 1.175781 -5.78125 1.238281 -5.863281 1.28125 -5.96875 C 1.351562 -6.132812 1.476562 -6.46875 1.65625 -6.96875 L 2.609375 -6.96875 L 2.609375 -5.671875 L 4.140625 -5.671875 L 4.140625 -4.59375 L 2.609375 -4.59375 L 2.609375 -2.3125 C 2.609375 -1.9375 2.625 -1.660156 2.65625 -1.484375 C 2.695312 -1.316406 2.757812 -1.207031 2.84375 -1.15625 C 2.9375 -1.113281 3.070312 -1.09375 3.25 -1.09375 C 3.382812 -1.09375 3.539062 -1.113281 3.71875 -1.15625 C 3.90625 -1.207031 4.039062 -1.265625 4.125 -1.328125 L 4.3125 -0.453125 C 4.15625 -0.316406 3.921875 -0.191406 3.609375 -0.078125 C 3.304688 0.0234375 2.972656 0.078125 2.609375 0.078125 C 2.234375 0.078125 1.929688 0.0195312 1.703125 -0.09375 C 1.472656 -0.21875 1.304688 -0.40625 1.203125 -0.65625 C 1.097656 -0.914062 1.046875 -1.257812 1.046875 -1.6875 Z M 1.046875 -4.59375 "/></g></g></g><g fill="#ffffff" fill-opacity="1"><g transform="translate(203.715008, 273.321917)"><g><path d="M 0.484375 -2.890625 C 0.484375 -3.492188 0.597656 -4.007812 0.828125 -4.4375 C 1.066406 -4.875 1.398438 -5.203125 1.828125 -5.421875 C 2.253906 -5.640625 2.742188 -5.75 3.296875 -5.75 C 3.921875 -5.75 4.4375 -5.613281 4.84375 -5.34375 C 5.25 -5.082031 5.539062 -4.726562 5.71875 -4.28125 C 5.90625 -3.84375 6 -3.347656 6 -2.796875 C 6 -2.179688 5.878906 -1.660156 5.640625 -1.234375 C 5.398438 -0.804688 5.066406 -0.476562 4.640625 -0.25 C 4.222656 -0.03125 3.738281 0.078125 3.1875 0.078125 C 2.5625 0.078125 2.046875 -0.0507812 1.640625 -0.3125 C 1.234375 -0.582031 0.9375 -0.9375 0.75 -1.375 C 0.570312 -1.820312 0.484375 -2.328125 0.484375 -2.890625 Z M 4.390625 -2.796875 C 4.390625 -3.328125 4.296875 -3.765625 4.109375 -4.109375 C 3.921875 -4.460938 3.632812 -4.640625 3.25 -4.640625 C 2.46875 -4.640625 2.078125 -4.066406 2.078125 -2.921875 C 2.078125 -2.566406 2.117188 -2.242188 2.203125 -1.953125 C 2.285156 -1.671875 2.410156 -1.441406 2.578125 -1.265625 C 2.753906 -1.097656 2.976562 -1.015625 3.25 -1.015625 C 4.007812 -1.015625 4.390625 -1.609375 4.390625 -2.796875 Z M 4.390625 -2.796875 "/></g></g></g><g fill="#ffffff" fill-opacity="1"><g transform="translate(210.187871, 273.321917)"><g/></g></g><g fill="#ffffff" fill-opacity="1"><g transform="translate(213.513788, 273.321917)"><g><path d="M 2.515625 -7.578125 L 2.515625 -1.203125 L 5.25 -1.203125 L 5.25 0 L 0.9375 0 L 0.9375 -7.578125 Z M 2.515625 -7.578125 "/></g></g></g><g fill="#ffffff" fill-opacity="1"><g transform="translate(219.081842, 273.321917)"><g><path d="M 0.484375 -2.890625 C 0.484375 -3.492188 0.597656 -4.007812 0.828125 -4.4375 C 1.066406 -4.875 1.398438 -5.203125 1.828125 -5.421875 C 2.253906 -5.640625 2.742188 -5.75 3.296875 -5.75 C 3.921875 -5.75 4.4375 -5.613281 4.84375 -5.34375 C 5.25 -5.082031 5.539062 -4.726562 5.71875 -4.28125 C 5.90625 -3.84375 6 -3.347656 6 -2.796875 C 6 -2.179688 5.878906 -1.660156 5.640625 -1.234375 C 5.398438 -0.804688 5.066406 -0.476562 4.640625 -0.25 C 4.222656 -0.03125 3.738281 0.078125 3.1875 0.078125 C 2.5625 0.078125 2.046875 -0.0507812 1.640625 -0.3125 C 1.234375 -0.582031 0.9375 -0.9375 0.75 -1.375 C 0.570312 -1.820312 0.484375 -2.328125 0.484375 -2.890625 Z M 4.390625 -2.796875 C 4.390625 -3.328125 4.296875 -3.765625 4.109375 -4.109375 C 3.921875 -4.460938 3.632812 -4.640625 3.25 -4.640625 C 2.46875 -4.640625 2.078125 -4.066406 2.078125 -2.921875 C 2.078125 -2.566406 2.117188 -2.242188 2.203125 -1.953125 C 2.285156 -1.671875 2.410156 -1.441406 2.578125 -1.265625 C 2.753906 -1.097656 2.976562 -1.015625 3.25 -1.015625 C 4.007812 -1.015625 4.390625 -1.609375 4.390625 -2.796875 Z M 4.390625 -2.796875 "/></g></g></g><g fill="#ffffff" fill-opacity="1"><g transform="translate(225.554704, 273.321917)"><g><path d="M 3.296875 -5.75 C 3.640625 -5.75 3.945312 -5.71875 4.21875 -5.65625 C 4.488281 -5.601562 4.675781 -5.539062 4.78125 -5.46875 L 4.578125 -4.265625 C 4.441406 -4.335938 4.285156 -4.390625 4.109375 -4.421875 C 3.929688 -4.460938 3.71875 -4.484375 3.46875 -4.484375 C 3.226562 -4.484375 3 -4.429688 2.78125 -4.328125 C 2.5625 -4.222656 2.378906 -4.054688 2.234375 -3.828125 C 2.097656 -3.609375 2.023438 -3.316406 2.015625 -2.953125 C 2.003906 -2.566406 2.054688 -2.238281 2.171875 -1.96875 C 2.285156 -1.695312 2.445312 -1.492188 2.65625 -1.359375 C 2.875 -1.234375 3.125 -1.171875 3.40625 -1.171875 C 3.65625 -1.171875 3.890625 -1.191406 4.109375 -1.234375 C 4.335938 -1.273438 4.515625 -1.332031 4.640625 -1.40625 L 4.859375 -0.484375 C 4.679688 -0.316406 4.4375 -0.179688 4.125 -0.078125 C 3.8125 0.0234375 3.476562 0.078125 3.125 0.078125 C 2.550781 0.078125 2.0625 -0.0390625 1.65625 -0.28125 C 1.257812 -0.53125 0.960938 -0.867188 0.765625 -1.296875 C 0.566406 -1.722656 0.46875 -2.210938 0.46875 -2.765625 C 0.46875 -3.335938 0.570312 -3.847656 0.78125 -4.296875 C 0.988281 -4.742188 1.304688 -5.097656 1.734375 -5.359375 C 2.160156 -5.617188 2.679688 -5.75 3.296875 -5.75 Z M 3.296875 -5.75 "/></g></g></g><g fill="#ffffff" fill-opacity="1"><g transform="translate(230.764812, 273.321917)"><g><path d="M 3.015625 -5.78125 C 3.566406 -5.78125 4.003906 -5.71875 4.328125 -5.59375 C 4.660156 -5.476562 4.910156 -5.269531 5.078125 -4.96875 C 5.242188 -4.664062 5.328125 -4.242188 5.328125 -3.703125 L 5.328125 0.078125 L 4.421875 0.078125 C 4.265625 0.078125 4.148438 0.0664062 4.078125 0.046875 C 4.003906 0.0234375 3.941406 -0.0195312 3.890625 -0.09375 C 3.847656 -0.164062 3.828125 -0.28125 3.828125 -0.4375 L 3.828125 -0.484375 C 3.660156 -0.316406 3.453125 -0.179688 3.203125 -0.078125 C 2.953125 0.0234375 2.671875 0.078125 2.359375 0.078125 C 1.992188 0.078125 1.671875 0 1.390625 -0.15625 C 1.109375 -0.3125 0.890625 -0.53125 0.734375 -0.8125 C 0.578125 -1.09375 0.5 -1.410156 0.5 -1.765625 C 0.5 -2.097656 0.582031 -2.378906 0.75 -2.609375 C 0.925781 -2.847656 1.175781 -3.039062 1.5 -3.1875 C 1.988281 -3.40625 2.742188 -3.515625 3.765625 -3.515625 L 3.765625 -3.875 C 3.765625 -4.082031 3.738281 -4.234375 3.6875 -4.328125 C 3.632812 -4.429688 3.53125 -4.5 3.375 -4.53125 C 3.21875 -4.570312 2.972656 -4.59375 2.640625 -4.59375 C 2.484375 -4.59375 2.242188 -4.550781 1.921875 -4.46875 C 1.597656 -4.394531 1.316406 -4.300781 1.078125 -4.1875 L 0.734375 -5.1875 C 0.867188 -5.269531 1.0625 -5.359375 1.3125 -5.453125 C 1.570312 -5.546875 1.851562 -5.625 2.15625 -5.6875 C 2.457031 -5.75 2.742188 -5.78125 3.015625 -5.78125 Z M 2.890625 -0.96875 C 3.054688 -0.96875 3.226562 -1 3.40625 -1.0625 C 3.59375 -1.132812 3.710938 -1.207031 3.765625 -1.28125 L 3.765625 -2.640625 C 3.578125 -2.640625 3.363281 -2.617188 3.125 -2.578125 C 2.894531 -2.535156 2.722656 -2.488281 2.609375 -2.4375 C 2.453125 -2.375 2.328125 -2.296875 2.234375 -2.203125 C 2.148438 -2.109375 2.109375 -1.96875 2.109375 -1.78125 C 2.109375 -1.507812 2.179688 -1.304688 2.328125 -1.171875 C 2.472656 -1.035156 2.660156 -0.96875 2.890625 -0.96875 Z M 2.890625 -0.96875 "/></g></g></g><g fill="#ffffff" fill-opacity="1"><g transform="translate(236.844928, 273.321917)"><g><path d="M 2.453125 -8.265625 L 2.453125 0 L 0.890625 0 L 0.890625 -8.265625 Z M 2.453125 -8.265625 "/></g></g></g><g fill="#ffffff" fill-opacity="1"><g transform="translate(240.18576, 273.321917)"><g><path d="M 0.734375 -1.515625 C 0.796875 -1.460938 0.910156 -1.398438 1.078125 -1.328125 C 1.253906 -1.253906 1.457031 -1.191406 1.6875 -1.140625 C 1.914062 -1.085938 2.140625 -1.0625 2.359375 -1.0625 C 2.671875 -1.0625 2.894531 -1.097656 3.03125 -1.171875 C 3.175781 -1.242188 3.25 -1.363281 3.25 -1.53125 C 3.25 -1.695312 3.148438 -1.84375 2.953125 -1.96875 C 2.753906 -2.09375 2.441406 -2.226562 2.015625 -2.375 C 1.515625 -2.539062 1.148438 -2.765625 0.921875 -3.046875 C 0.703125 -3.335938 0.59375 -3.691406 0.59375 -4.109375 C 0.59375 -4.453125 0.6875 -4.75 0.875 -5 C 1.070312 -5.25 1.34375 -5.4375 1.6875 -5.5625 C 2.03125 -5.6875 2.425781 -5.75 2.875 -5.75 C 3.238281 -5.75 3.5625 -5.710938 3.84375 -5.640625 C 4.132812 -5.578125 4.347656 -5.503906 4.484375 -5.421875 L 4.3125 -4.234375 C 4.195312 -4.335938 4.015625 -4.425781 3.765625 -4.5 C 3.515625 -4.570312 3.269531 -4.609375 3.03125 -4.609375 C 2.695312 -4.609375 2.453125 -4.570312 2.296875 -4.5 C 2.148438 -4.4375 2.078125 -4.320312 2.078125 -4.15625 C 2.078125 -4.039062 2.109375 -3.941406 2.171875 -3.859375 C 2.242188 -3.773438 2.359375 -3.695312 2.515625 -3.625 C 2.671875 -3.550781 2.894531 -3.46875 3.1875 -3.375 C 3.570312 -3.238281 3.878906 -3.09375 4.109375 -2.9375 C 4.335938 -2.78125 4.503906 -2.597656 4.609375 -2.390625 C 4.722656 -2.179688 4.78125 -1.9375 4.78125 -1.65625 C 4.78125 -1.082031 4.582031 -0.648438 4.1875 -0.359375 C 3.789062 -0.0664062 3.242188 0.078125 2.546875 0.078125 C 2.285156 0.078125 2.019531 0.0546875 1.75 0.015625 C 1.488281 -0.0234375 1.253906 -0.078125 1.046875 -0.140625 C 0.835938 -0.210938 0.679688 -0.285156 0.578125 -0.359375 Z M 0.734375 -1.515625 "/></g></g></g></svg>